<?xml version="1.0" encoding="UTF-8"?>
<svg version="1.1" xmlns="http://www.w3.org/2000/svg" width="231" height="227">
<path d="M0 0 C76.23 0 152.46 0 231 0 C231 74.91 231 149.82 231 227 C154.77 227 78.54 227 0 227 C0 152.09 0 77.18 0 0 Z " fill="#150139" transform="translate(0,0)"/>
<path d="M0 0 C3.33398621 2.57193222 4.74373264 5.03255736 6 9 C7.12140101 20.99308866 6.61290981 32.43633476 -0.83203125 42.46875 C-5.06148944 47.07360389 -9.10395785 49.23118735 -15 51 C-16.27765213 51.54683511 -17.54895358 52.10881697 -18.8125 52.6875 C-22 54 -22 54 -25 54 C-25 54.66 -25 55.32 -25 56 C-26.89454824 56.96087136 -28.79069581 57.91858969 -30.6875 58.875 C-31.74324219 59.40867188 -32.79898438 59.94234375 -33.88671875 60.4921875 C-37 62 -37 62 -39.62890625 63.00390625 C-49.44938211 67.12947683 -57.71306197 76.89621142 -64 85.1875 C-67.63858503 89.86151404 -71.6415047 93.40002003 -77 96 C-77.99 96 -78.98 96 -80 96 C-80 96.66 -80 97.32 -80 98 C-82.37625177 98.10883596 -84.74743976 98.18766696 -87.125 98.25 C-87.79015625 98.28351563 -88.4553125 98.31703125 -89.140625 98.3515625 C-95.2781503 98.47190613 -98.58400254 96.32154489 -102.8984375 92.17578125 C-106.26513393 87.92733099 -107.92147565 84.6685923 -107.5234375 79.171875 C-106.60757638 75.37173482 -104.63376003 72.81768182 -102 70 C-101.319375 69.2575 -100.63875 68.515 -99.9375 67.75 C-92.20413672 63.14288996 -83.65013946 62.83553315 -74.875 62.5625 C-67.54833903 62.3076655 -61.43623432 61.83136998 -55 58 C-54.17628906 57.5153125 -53.35257813 57.030625 -52.50390625 56.53125 C-40.37297383 48.70245952 -33.14228286 37.04410352 -25.43261719 25.19042969 C-8.0372841 -1.40652472 -8.0372841 -1.40652472 0 0 Z " fill="#AB4D9A" transform="translate(210,100)"/>
<path d="M0 0 C0.598125 0.4125 1.19625 0.825 1.8125 1.25 C3.78029425 4.14990732 3.35154015 6.60177855 3 10 C1.875 12.5 1.875 12.5 0 15 C-0.39058594 15.54527344 -0.78117187 16.09054688 -1.18359375 16.65234375 C-8.88825431 26.62693263 -19.40770363 29.33498563 -31.265625 31.6328125 C-45.52092803 34.57170199 -57.96640728 42.03846916 -66.9375 53.6875 C-73.33261086 63.69324761 -74.49641725 74.87665659 -75.22973633 86.45239258 C-75.63549139 92.22575447 -76.45476232 97.73688115 -79 103 C-81.5 104.875 -81.5 104.875 -84 106 C-84.474375 106.556875 -84.94875 107.11375 -85.4375 107.6875 C-87 109 -87 109 -89.875 109.4375 C-93.93441654 108.86918168 -95.27817829 108.08963546 -98 105 C-102.28398165 96.53485225 -102.3879041 85.20426178 -100.34375 76.06640625 C-95.54031173 62.79483757 -83.6366294 52.95636402 -72.95703125 44.3828125 C-68.06975441 40.44458414 -63.28806594 36.38514273 -58.52392578 32.29931641 C-57.13922833 31.11870766 -55.74028339 29.95486067 -54.33984375 28.79296875 C-48.76134114 24.02781359 -44.34367078 18.82658161 -39.90063477 13.03442383 C-33.62657589 4.85879603 -27.90415998 -1.36810764 -17.5625 -3.8125 C-11.09547659 -4.15286965 -5.32176969 -4.06958859 0 0 Z " fill="#9B58A1" transform="translate(117,26)"/>
<path d="M0 0 C8.22832564 6.68866962 15.16413513 14.31027691 21.625 22.6875 C25.13669472 27.16769783 29.04603083 31.05012558 33.125 35 C38.44452164 40.18859896 42.81997698 45.19475073 46 52 C46.680625 53.4540625 46.680625 53.4540625 47.375 54.9375 C48.51591465 60.52798178 48.81489907 66.55530278 47 72 C41.40829694 76.87481805 41.40829694 76.87481805 37.1875 77.25 C33.36048623 76.94984206 31.96737109 76.44808115 29 74 C20.63531066 63.7016552 18.37661691 52.92656764 17.31054688 40.00976562 C16.27511158 29.75433963 12.84885984 20.036272 5 13 C2.44316752 11.10230937 -0.20583835 9.52167817 -3 8 C-3.94166016 7.46052734 -3.94166016 7.46052734 -4.90234375 6.91015625 C-13.62476476 2.18328188 -22.7627648 0.82034929 -32.49169922 -0.15625 C-39.61157211 -0.93441304 -46.19931396 -2.77980773 -53 -5 C-52.67 -6.32 -52.34 -7.64 -52 -9 C-34.35898474 -11.8816001 -14.71350557 -11.2603359 0 0 Z " fill="#B63E94" transform="translate(157,21)"/>
<path d="M0 0 C1.8984375 0.67578125 1.8984375 0.67578125 4.8984375 2.48828125 C5.8359375 5.17578125 5.8359375 5.17578125 5.8984375 7.48828125 C6.5584375 7.48828125 7.2184375 7.48828125 7.8984375 7.48828125 C8.46223142 8.88359246 9.02434967 10.27958067 9.5859375 11.67578125 C9.95589844 12.5884375 10.32585938 13.50109375 10.70703125 14.44140625 C11.5114512 16.49861136 12.27371988 18.57272714 12.99609375 20.66015625 C19.69846982 39.65400842 33.64666694 51.76474107 50.92578125 61.12890625 C57.0406625 64.04159 63.31917876 65.92300306 69.8984375 67.48828125 C70.2284375 69.13828125 70.5584375 70.78828125 70.8984375 72.48828125 C64.12463493 76.88209913 56.54436261 76.29506157 48.8984375 74.67578125 C42.03781334 72.4107905 37.62637153 66.67375728 32.8984375 61.48828125 C31.23718205 59.81622088 29.57012421 58.1499127 27.8984375 56.48828125 C26.81884942 55.37641874 25.74082657 54.26303509 24.6640625 53.1484375 C16.24615295 44.44950665 16.24615295 44.44950665 6.375 37.50390625 C5.88773438 37.16875 5.40046875 36.83359375 4.8984375 36.48828125 C4.8984375 35.82828125 4.8984375 35.16828125 4.8984375 34.48828125 C4.31835938 34.318125 3.73828125 34.14796875 3.140625 33.97265625 C-4.15301684 31.70994228 -9.67636634 28.96803276 -14.1015625 22.48828125 C-16.89071756 16.67838064 -16.86203287 10.8066574 -16.1015625 4.48828125 C-12.34239736 -1.93867851 -6.60528933 -1.60835112 0 0 Z " fill="#A44A9C" transform="translate(53.1015625,138.51171875)"/>
<path d="M0 0 C3.80050467 2.46939502 7.14678023 4.82575062 9.44921875 8.80078125 C10.40407191 14.41919261 10.78265049 20.29079208 8.0546875 25.42578125 C3.77514198 30.49783519 0.24184723 32.52609648 -6.36328125 33.17578125 C-12.01822939 32.98408809 -16.25502149 30.92069558 -20.38671875 27.10546875 C-24.19138047 22.69349014 -25.39164827 19.00640751 -25.0078125 13.1953125 C-24.04653416 8.15887126 -21.76604975 4.92712766 -17.98828125 1.42578125 C-12.63645667 -2.1421018 -5.85201708 -2.75125459 0 0 Z " fill="#618EBC" transform="translate(135.55078125,52.19921875)"/>
<path d="M0 0 C3.36073284 2.10882639 4.47590527 4.02494989 5.625 7.8125 C6.5832765 13.89387012 6.23872785 18.60939468 2.8125 23.8125 C-2.07671149 30.37973716 -2.07671149 30.37973716 -6.375 31.8125 C-17.85984848 32.87310606 -17.85984848 32.87310606 -22.5 29.625 C-23.11875 28.696875 -23.7375 27.76875 -24.375 26.8125 C-25.2721875 25.7296875 -25.2721875 25.7296875 -26.1875 24.625 C-28.00470661 20.32108962 -28.13034951 16.40754285 -27.375 11.8125 C-24.97089182 6.23153457 -21.22340602 1.10723001 -15.625 -1.4375 C-9.56789137 -2.8352943 -5.40542455 -3.11399458 0 0 Z " fill="#5896C0" transform="translate(151.375,121.1875)"/>
<path d="M0 0 C3.5 1.75 3.5 1.75 6 4 C6.7425 4.61875 7.485 5.2375 8.25 5.875 C11.97594746 10.39936477 12.50994806 15.28858178 12 21 C10.14373277 26.3504173 6.82368106 30.09981159 2 33 C-3.39971462 33.86781128 -7.27418953 32.66363863 -12 30 C-17.15947059 25.2073725 -20.01938375 20.60513794 -20.3125 13.5 C-20.1726298 8.22864177 -18.39719974 5.66762549 -15.0625 1.6875 C-10.2095663 -0.98656551 -5.41259074 -0.73440851 0 0 Z " fill="#5A95BF" transform="translate(92,131)"/>
<path d="M0 0 C8.31241733 6.75702636 15.45082135 14.54064424 22 23 C21.505 23.99 21.505 23.99 21 25 C19.35 23.68 17.7 22.36 16 21 C16.65142969 24.45567942 17.49446747 27.80137801 18.4375 31.1875 C19.79812046 36.46722819 20.39789558 41.59187438 20.875 47 C21.76181283 56.18964589 23.48557848 65.06184248 30.375 71.75 C33.01831446 73.69073415 34.31459458 74.05865323 37.6875 74.6875 C41.09767869 74.29306253 41.09767869 74.29306253 43.171875 71.8515625 C46.34965837 66.89476366 45.83740885 61.68339775 45 56 C43.874661 53.59826978 42.67558642 51.72720407 40.99609375 49.68359375 C40 48 40 48 40.34765625 45.78515625 C40.56292969 45.19605469 40.77820313 44.60695312 41 44 C46.57702516 52.38682409 48.68653689 58.82967439 48 69 C46.62074215 73.13777356 43.8553643 75.07231785 40 77 C35.30863718 77.41701003 32.65702848 77.0170485 29 74 C20.63531066 63.7016552 18.37661691 52.92656764 17.31054688 40.00976562 C16.27511158 29.75433963 12.84885984 20.036272 5 13 C2.44316752 11.10230937 -0.20583835 9.52167817 -3 8 C-3.94166016 7.46052734 -3.94166016 7.46052734 -4.90234375 6.91015625 C-13.62476476 2.18328188 -22.7627648 0.82034929 -32.49169922 -0.15625 C-39.61157211 -0.93441304 -46.19931396 -2.77980773 -53 -5 C-52.67 -6.32 -52.34 -7.64 -52 -9 C-34.35898474 -11.8816001 -14.71350557 -11.2603359 0 0 Z " fill="#BE2F8F" transform="translate(157,21)"/>
<path d="M0 0 C2.92800587 2.34240469 4.92044753 4.3136908 5.62109375 8.08203125 C5.63074822 14.21262277 4.93018156 17.82541901 1.1875 22.75 C-2.48259713 26.241068 -5.44279323 27.06058621 -10.375 27.3125 C-14.47895704 27.17290962 -15.55159111 26.94829076 -18.9375 24.375 C-22.52208295 19.35658387 -22.67751498 14.81326538 -21.8125 8.75 C-19.83876753 4.62370694 -17.29893129 1.68879871 -13.4375 -0.75 C-8.62341785 -1.66696803 -4.54776334 -2.02122815 0 0 Z " fill="#4F9CC3" transform="translate(89.8125,70.25)"/>
<path d="M0 0 C4.66599186 1.73831069 8.14880148 3.89091978 11 8 C11.8101592 13.44182409 11.55194586 18.34416243 9.8125 23.5625 C7.7057242 26.39575021 6.27337055 27.66089387 3 29 C-1.20293133 29.53491853 -3.39808674 29.30685774 -7.1875 27.375 C-11.05306709 24.11074335 -13.40060346 20.79818961 -15 16 C-15.50154202 9.8811874 -15.07788705 6.89346446 -11 2 C-7.2738532 -0.48409787 -4.31532775 -0.52505889 0 0 Z " fill="#6D7EB4" transform="translate(162,83)"/>
<path d="M0 0 C0.81860511 7.50388016 -1.4064936 11.18634346 -6 17 C-6.495 17.65871094 -6.99 18.31742188 -7.5 18.99609375 C-13.05915773 25.90334724 -21.67795918 33.69275268 -30 37 C-33.25 37.125 -33.25 37.125 -36 37 C-36.99442615 30.60726049 -34.62451152 27.00783481 -31.05859375 21.77734375 C-25.83937034 14.73584879 -20.32611747 8.8496834 -13 4 C-12.39027344 3.58621094 -11.78054687 3.17242187 -11.15234375 2.74609375 C-7.30657665 0.32030219 -4.52193317 -0.44116421 0 0 Z " fill="#B64395" transform="translate(64,32)"/>
<path d="M0 0 C0.87560928 6.7547002 -0.77216656 10.10152685 -4.8671875 15.46484375 C-14.5209901 26.93978493 -14.5209901 26.93978493 -22 29 C-22 29.66 -22 30.32 -22 31 C-25.67346771 33.44897847 -27.66356399 33.31537716 -32 33 C-34 31 -34 31 -34.0625 27.4375 C-32.69926127 18.67155791 -24.24227848 11.737123 -18 6 C-17.36191406 5.39542969 -16.72382813 4.79085937 -16.06640625 4.16796875 C-10.87404301 -0.29307572 -6.71749238 -0.74332908 0 0 Z " fill="#CD308B" transform="translate(191,163)"/>
<path d="M0 0 C3.1398735 3.23222272 3.9900121 4.99510689 4.5 9.5 C4.02168461 14.20343465 2.84577302 16.33307155 0.125 20.1875 C-4.21559803 22.96400194 -8.8902417 22.98732345 -13.875 22.1875 C-17.14850867 19.7323685 -19.63770989 17.12433218 -20.875 13.1875 C-21.40220041 8.51801067 -21.63158076 5.58981116 -18.6875 1.8125 C-12.90369495 -3.58571805 -6.73898415 -4.24849001 0 0 Z " fill="#0DCFDF" transform="translate(116.875,99.8125)"/>
<path d="M0 0 C2.60847629 1.49745861 4.87028902 2.87028902 7 5 C7.15252309 6.91240484 7.22192773 8.83172799 7.25 10.75 C7.27578125 11.79671875 7.3015625 12.8434375 7.328125 13.921875 C6.85744238 18.33732621 5.09472444 20.90527556 2 24 C-1.87058172 24.87475147 -5.48412827 24.92858674 -8.92578125 22.8203125 C-12.41902005 19.33541079 -13.41933668 16.27774819 -13.625 11.375 C-13.42128656 7.66741548 -13.07617423 6.12695706 -11.125 2.875 C-7.43137598 -0.38408002 -4.89394814 -0.40782901 0 0 Z " fill="#648BBA" transform="translate(64,102)"/>
<path d="M0 0 C7.11914608 0.13977381 11.34160409 2.42217399 16.875 6.6875 C19.41734116 10.10377094 19.28295011 12.21390892 18.875 16.375 C14.71148793 18.39367252 11.48256604 18.84356604 6.875 18.375 C4.00071809 17.34449195 1.46845155 15.97822459 -1.125 14.375 C-1.73214844 14.00117187 -2.33929688 13.62734375 -2.96484375 13.2421875 C-4.625 12.0625 -4.625 12.0625 -7.125 9.375 C-7.625 5.6875 -7.625 5.6875 -7.125 2.375 C-4.58093438 -0.16906562 -3.53248394 0.04919894 0 0 Z " fill="#A44F9D" transform="translate(138.125,29.625)"/>
<path d="M0 0 C6.15562599 -0.78918282 10.14361596 1.51171235 15 5 C20.23467736 9.40266536 25.16545897 14.16545897 30 19 C30.1875 21.5625 30.1875 21.5625 30 24 C29 25 29 25 26.26171875 25.234375 C17.92514628 24.63533985 11.36363631 17.76764743 5.875 11.9375 C5.40167236 11.4434668 4.92834473 10.94943359 4.44067383 10.44042969 C1.42476733 7.07792482 0.33357815 4.48996186 0 0 Z " fill="#B92E90" transform="translate(47,180)"/>
<path d="M0 0 C11.61924502 3.78153611 20.56165822 16.7899272 28 26 C27.67 26.66 27.34 27.32 27 28 C25.35 26.68 23.7 25.36 22 24 C22.65142969 27.45567942 23.49446747 30.80137801 24.4375 34.1875 C25.79812046 39.46722819 26.39789558 44.59187438 26.875 50 C27.76181283 59.18964589 29.48557848 68.06184248 36.375 74.75 C39.01831446 76.69073415 40.31459458 77.05865323 43.6875 77.6875 C47.09767869 77.29306253 47.09767869 77.29306253 49.171875 74.8515625 C52.34965837 69.89476366 51.83740885 64.68339775 51 59 C49.874661 56.59826978 48.67558642 54.72720407 46.99609375 52.68359375 C46 51 46 51 46.34765625 48.78515625 C46.56292969 48.19605469 46.77820313 47.60695312 47 47 C52.57702516 55.38682409 54.68653689 61.82967439 54 72 C52.62074215 76.13777356 49.8553643 78.07231785 46 80 C41.30863718 80.41701003 38.65702848 80.0170485 35 77 C26.63531066 66.7016552 24.37661691 55.92656764 23.31054688 43.00976562 C22.20076311 32.01795822 18.0402765 23.44349312 11 15 C13.475 15.99 13.475 15.99 16 17 C13.95227235 13.25128452 11.77797122 10.61587036 8.5625 7.8125 C7.80066406 7.13832031 7.03882813 6.46414062 6.25390625 5.76953125 C4.22245402 4.17464761 2.3509592 3.04427572 0 2 C0 1.34 0 0.68 0 0 Z " fill="#592594" transform="translate(151,18)"/>
<path d="M0 0 C2.3125 0 2.3125 0 5 1 C5.95479932 2.93674933 6.54457201 4.89283304 7.1875 6.953125 C7.95786537 9.28814863 7.95786537 9.28814863 10.5 11.5 C13.26934585 14.26934585 14.11126572 16.31324779 15.30859375 19.953125 C16.06130444 22.304931 16.06130444 22.304931 17.6875 25.625 C19.01658542 29.04264823 19.26524229 31.37502206 19 35 C17.25 34.875 17.25 34.875 15 34 C13.60699818 32.04109119 12.27754554 30.0360882 11 28 C10.36449219 27.40960938 9.72898437 26.81921875 9.07421875 26.2109375 C6.53670107 23.50616348 5.31060812 20.82268518 3.8125 17.4375 C3.30332031 16.30183594 2.79414063 15.16617188 2.26953125 13.99609375 C0.1149866 8.91136837 -0.08925331 5.44445169 0 0 Z " fill="#BC2F92" transform="translate(18,140)"/>
<path d="M0 0 C8.23306426 1.31729028 13.08508652 6.82542906 18 13 C18.57363281 13.67675781 19.14726562 14.35351562 19.73828125 15.05078125 C23.26900524 19.39045393 24.76600228 22.38405462 25 28 C15.33509083 26.5403112 7.50298753 14.23453102 2 7 C0 4 0 4 0 0 Z " fill="#AA1A8D" transform="translate(176,31)"/>
<path d="M0 0 C2.63361256 0.37623037 4.07220172 1.05214568 6.25 2.625 C8.68498684 5.929625 8.49393541 7.97795456 8 12 C6.875 14.5 6.875 14.5 5 17 C4.60941406 17.54527344 4.21882813 18.09054688 3.81640625 18.65234375 C-3.88825431 28.62693263 -14.40770363 31.33498563 -26.265625 33.6328125 C-40.72103564 36.6129564 -53.51209715 44.1695307 -62.0625 56.4375 C-62.58972656 57.26121094 -63.11695313 58.08492187 -63.66015625 58.93359375 C-65 61 -65 61 -67 63 C-66.42365861 58.24518354 -64.44931479 55.02951788 -62 51 C-61.34 51 -60.68 51 -60 51 C-59.67 50.01 -59.34 49.02 -59 48 C-58.34 48 -57.68 48 -57 48 C-56.773125 47.4225 -56.54625 46.845 -56.3125 46.25 C-53.83967344 42.01086875 -50.92419288 40.26185465 -46.25 38.9375 C-45.1775 38.628125 -44.105 38.31875 -43 38 C-42.67 37.01 -42.34 36.02 -42 35 C-35.23050331 31.28313647 -27.07025807 29.99670185 -19.54711914 28.57055664 C-12.45338147 27.14367785 -6.72973362 24.4074874 -1 20 C-0.34 20 0.32 20 1 20 C1 19.01 1 18.02 1 17 C1.66 16.443125 2.32 15.88625 3 15.3125 C5.38487553 12.55498767 5.62801594 10.5864577 5.47265625 6.97265625 C4.68639284 3.69114368 2.55270688 2.04216551 0 0 Z " fill="#5E58B1" transform="translate(112,24)"/>
<path d="M0 0 C0.66 0.33 1.32 0.66 2 1 C1.53625977 1.41773682 1.07251953 1.83547363 0.59472656 2.26586914 C-1.52892346 4.1886692 -3.63941953 6.12536689 -5.75 8.0625 C-6.47960937 8.71927734 -7.20921875 9.37605469 -7.9609375 10.05273438 C-12.33224931 14.086263 -15.2824702 17.71664716 -18 23 C-18.66 23.66 -19.32 24.32 -20 25 C-23.45776356 37.08631115 -23.28381645 46.76526901 -21 59 C-17.95816743 59.72897948 -15.13233685 60.2000484 -12 60 C-7.76436868 56.31684233 -5.97114885 52.18723383 -4 47 C-3.34 47 -2.68 47 -2 47 C-1.67 46.01 -1.34 45.02 -1 44 C-1.54581159 48.5484299 -2.09546094 52.81001406 -4 57 C-6.4375 58.6875 -6.4375 58.6875 -9 60 C-9.474375 60.556875 -9.94875 61.11375 -10.4375 61.6875 C-12 63 -12 63 -14.875 63.4375 C-18.93441654 62.86918168 -20.27817829 62.08963546 -23 59 C-27.28398165 50.53485225 -27.3879041 39.20426178 -25.34375 30.06640625 C-20.87754766 17.7265972 -10.04118415 7.98145407 0 0 Z " fill="#6D2595" transform="translate(42,72)"/>
<path d="M0 0 C3.36073284 2.10882639 4.47590527 4.02494989 5.625 7.8125 C6.5832765 13.89387012 6.23872785 18.60939468 2.8125 23.8125 C-2.07671149 30.37973716 -2.07671149 30.37973716 -6.375 31.8125 C-8.5384168 31.95747123 -10.70692931 32.03320175 -12.875 32.0625 C-14.0196875 32.08828125 -15.164375 32.1140625 -16.34375 32.140625 C-19.375 31.8125 -19.375 31.8125 -21.28125 30.296875 C-21.6421875 29.80703125 -22.003125 29.3171875 -22.375 28.8125 C-21.43398437 28.84730469 -20.49296875 28.88210937 -19.5234375 28.91796875 C-18.27820313 28.94503906 -17.03296875 28.97210938 -15.75 29 C-13.90535156 29.05220703 -13.90535156 29.05220703 -12.0234375 29.10546875 C-6.86865221 28.6915406 -3.62445179 27.16607277 -0.125 23.375 C0.4525 22.529375 1.03 21.68375 1.625 20.8125 C2.0375 20.214375 2.45 19.61625 2.875 19 C4.05501865 15.55827893 4.28425285 12.35928035 3.625 8.8125 C2.30068278 6.1536785 0.75785236 3.88527201 -1.375 1.8125 C-5.66339505 0.38303498 -9.54141219 0.36528346 -13.9375 1.4375 C-18.2926201 3.89423442 -21.78064667 7.02944001 -23.375 11.8125 C-24.035 11.8125 -24.695 11.8125 -25.375 11.8125 C-25.045 16.4325 -24.715 21.0525 -24.375 25.8125 C-26.375 24.8125 -26.375 24.8125 -27.375 21.8125 C-28.17942494 15.34262514 -27.56651859 10.82963787 -23.73046875 5.5 C-17.6160521 -2.11218442 -8.86973421 -5.10973819 0 0 Z " fill="#4A5CAF" transform="translate(151.375,121.1875)"/>
<path d="M0 0 C0.66649108 9.05883799 -5.11983437 17.07790955 -10.75 23.8125 C-12.421875 25.70703125 -12.421875 25.70703125 -14 27 C-14.99 27 -15.98 27 -17 27 C-17.71185655 19.28579945 -12.45116257 11.4396151 -8.08203125 5.30859375 C-3.62813059 0 -3.62813059 0 0 0 Z " fill="#940D90" transform="translate(210,151)"/>
<path d="M0 0 C1.8984375 0.67578125 1.8984375 0.67578125 4.8984375 2.48828125 C5.8359375 5.17578125 5.8359375 5.17578125 5.8984375 7.48828125 C6.5584375 7.48828125 7.2184375 7.48828125 7.8984375 7.48828125 C8.46223142 8.88359246 9.02434967 10.27958067 9.5859375 11.67578125 C9.95203125 12.58328125 10.318125 13.49078125 10.6953125 14.42578125 C11.52583153 16.53982969 12.32615813 18.66590169 13.1015625 20.80078125 C15.39890385 27.08211962 17.66660553 32.2891734 21.8984375 37.48828125 C21.4034375 38.47828125 21.4034375 38.47828125 20.8984375 39.48828125 C13.81492256 33.19182352 11.19206207 24.91757086 8.09204102 16.21166992 C5.33134784 8.24086159 5.33134784 8.24086159 -0.9765625 3.17578125 C-4.14034556 1.75613501 -6.61336533 0.71312632 -10.1015625 1.48828125 C-12.61863407 2.75190824 -12.61863407 2.75190824 -14.1015625 5.48828125 C-15.31301275 11.73622376 -14.18219088 16.99009096 -10.87890625 22.37109375 C-7.60673396 26.26893415 -3.42608523 28.87677335 0.8984375 31.48828125 C-2.58543347 32.72597225 -2.58543347 32.72597225 -4.8828125 31.66796875 C-10.13783208 27.67893116 -13.96015677 23.87620343 -16.1015625 17.48828125 C-16.78953098 11.63692832 -17.18817663 6.3460409 -14.1640625 1.17578125 C-9.36838566 -1.46673456 -5.24706578 -1.27763126 0 0 Z " fill="#4B3198" transform="translate(53.1015625,138.51171875)"/>
<path d="M0 0 C0.87560928 6.7547002 -0.77216656 10.10152685 -4.8671875 15.46484375 C-14.5209901 26.93978493 -14.5209901 26.93978493 -22 29 C-22 29.66 -22 30.32 -22 31 C-25.67346771 33.44897847 -27.66356399 33.31537716 -32 33 C-34 31 -34 31 -34.0625 27.4375 C-32.69926127 18.67155791 -24.24227848 11.737123 -18 6 C-17.36191406 5.39542969 -16.72382813 4.79085937 -16.06640625 4.16796875 C-10.87404301 -0.29307572 -6.71749238 -0.74332908 0 0 Z M-15 7 C-15.825 7.474375 -16.65 7.94875 -17.5 8.4375 C-20.09962378 10.06226486 -22.02392738 11.657988 -24 14 C-24 14.99 -24 15.98 -24 17 C-24.99 17.33 -25.98 17.66 -27 18 C-29.77040168 21.34008991 -31.86036403 24.65949473 -32.3125 29 C-32.209375 29.66 -32.10625 30.32 -32 31 C-21.73937914 30.34506675 -15.08984326 24.74643344 -8.17578125 17.48828125 C-4.37785504 13.14487192 -2.12779332 10.01274481 -1.75 4.0625 C-1.8325 3.051875 -1.915 2.04125 -2 1 C-7.20010245 1 -11.00621334 3.90803613 -15 7 Z " fill="#811393" transform="translate(191,163)"/>
<path d="M0 0 C0.81860511 7.50388016 -1.4064936 11.18634346 -6 17 C-6.495 17.65871094 -6.99 18.31742188 -7.5 18.99609375 C-13.05915773 25.90334724 -21.67795918 33.69275268 -30 37 C-33.25 37.125 -33.25 37.125 -36 37 C-36.99442615 30.60726049 -34.62451152 27.00783481 -31.05859375 21.77734375 C-25.83937034 14.73584879 -20.32611747 8.8496834 -13 4 C-12.39027344 3.58621094 -11.78054687 3.17242187 -11.15234375 2.74609375 C-7.30657665 0.32030219 -4.52193317 -0.44116421 0 0 Z M-25 16 C-25.52851562 16.515625 -26.05703125 17.03125 -26.6015625 17.5625 C-31.23031688 22.56041884 -34 29.2446356 -34 36 C-22.28265616 34.2526768 -13.13262862 23.44110056 -6.015625 14.78125 C-2.88817133 10.46584882 -1 7.3925463 -1 2 C-10.97331737 1.46043135 -18.33917025 9.45602691 -25 16 Z " fill="#7332A5" transform="translate(64,32)"/>
<path d="M0 0 C-0.99288599 2.53265572 -1.6429442 3.77903226 -3.98828125 5.23046875 C-4.75527344 5.54628906 -5.52226562 5.86210937 -6.3125 6.1875 C-7.07175781 6.51105469 -7.83101562 6.83460938 -8.61328125 7.16796875 C-13.31438732 8.80681587 -17.75195706 9.12779972 -22.68823242 9.28930664 C-34.43436554 9.69205087 -43.07740123 10.11039809 -51.50390625 19.0625 C-53.93175769 22.2066627 -54.1180914 24.85169361 -54.0625 28.6875 C-54.05347656 29.49574219 -54.04445313 30.30398437 -54.03515625 31.13671875 C-54.02355469 31.75160156 -54.01195313 32.36648437 -54 33 C-55.9083857 31.39614394 -56.89606185 30.44693403 -57.46875 27.984375 C-57.55442375 21.8587016 -56.17046123 18.46169456 -52 14 C-51.319375 13.2575 -50.63875 12.515 -49.9375 11.75 C-42.20601283 7.14400764 -33.6490291 6.8316221 -24.875 6.5625 C-16.09159837 6.29189037 -7.43505524 0 0 0 Z " fill="#6256B0" transform="translate(160,156)"/>
<path d="M0 0 C3.33398621 2.57193222 4.74373264 5.03255736 6 9 C7.11305093 20.90378681 6.82400056 32.90569987 -1.11328125 42.57421875 C-3.00430855 44.49883446 -4.91617767 46.28847347 -7 48 C-7.66 47.67 -8.32 47.34 -9 47 C-8.20335937 46.4121875 -8.20335937 46.4121875 -7.390625 45.8125 C0.65047584 39.00397666 2.42917476 29.84990291 3.26953125 19.765625 C3.34547096 14.76741168 2.87412219 9.9169373 2 5 C0.35 4.34 -1.3 3.68 -3 3 C-3.60328125 3.63808594 -4.2065625 4.27617188 -4.828125 4.93359375 C-5.62734375 5.75988281 -6.4265625 6.58617188 -7.25 7.4375 C-8.43335938 8.67306641 -8.43335938 8.67306641 -9.640625 9.93359375 C-11.90734717 11.91885207 -13.0671937 12.6300359 -16 13 C-13.2571864 6.51698604 -7.77412421 -1.36047174 0 0 Z " fill="#8B0F8E" transform="translate(210,100)"/>
<path d="M0 0 C0.99567993 0.24786255 0.99567993 0.24786255 2.01147461 0.50073242 C5.41553582 1.44841093 7.79676966 2.36056107 10 5.1875 C5.25 4.3125 5.25 4.3125 3 3.1875 C-8.56996731 1.1978472 -19.31503456 1.20557013 -31 2.1875 C-22.42 3.8375 -13.84 5.4875 -5 7.1875 C-5 7.5175 -5 7.8475 -5 8.1875 C-15.98166413 7.92160014 -25.52986162 6.7549798 -36 3.1875 C-35.67 1.8675 -35.34 0.5475 -35 -0.8125 C-23.38347041 -2.71002077 -11.45954145 -2.86654809 0 0 Z " fill="#88219B" transform="translate(140,12.8125)"/>
<path d="M0 0 C-0.39031363 2.37736486 -0.71112415 3.70475774 -2.41796875 5.44921875 C-6.26549 8.14163428 -9.18606266 9.64776068 -14 10 C-14 10.66 -14 11.32 -14 12 C-16.97 12 -19.94 12 -23 12 C-22.8125 9.625 -22.8125 9.625 -22 7 C-19.5 5.8125 -19.5 5.8125 -17 5 C-16.67 4.34 -16.34 3.68 -16 3 C-10.7230161 0.53136805 -5.77227287 -0.36844295 0 0 Z " fill="#AF1A8C" transform="translate(156,201)"/>
<path d="M0 0 C-4.40086567 3.12319499 -8.79459302 4.03603575 -14 5 C-14 5.66 -14 6.32 -14 7 C-15.89454824 7.96087136 -17.79069581 8.91858969 -19.6875 9.875 C-21.27111328 10.67550781 -21.27111328 10.67550781 -22.88671875 11.4921875 C-26 13 -26 13 -28.62890625 14.00390625 C-38.44938211 18.12947683 -46.71306197 27.89621142 -53 36.1875 C-56.58627344 40.78712926 -60.58711871 44.64053893 -66 47 C-66.99 46.67 -67.98 46.34 -69 46 C-68.443125 45.6596875 -67.88625 45.319375 -67.3125 44.96875 C-59.87637335 40.2458047 -54.18877203 34.55978873 -48.4375 27.9375 C-47.29272584 26.62407608 -46.14693302 25.31153915 -45 24 C-44.505 23.42507812 -44.01 22.85015625 -43.5 22.2578125 C-36.12732048 14.25845522 -26.22119747 8.46790629 -16 5 C-15.01 4.319375 -14.02 3.63875 -13 2.9375 C-9.32583994 0.56460496 -4.24350518 -2.12175259 0 0 Z " fill="#6A30A3" transform="translate(199,149)"/>
<path d="M0 0 C4.66599186 1.73831069 8.14880148 3.89091978 11 8 C11.81716321 14.07396575 11.56492501 19.39630841 9 25 C7.96055399 21.88166198 8.06960368 20.86457544 8.625 17.75 C9.2390493 12.85355492 8.47297842 10.2637559 6 6 C3.44439836 3.0657907 1.99890156 2.99986052 -1.9375 2.5 C-5.18946005 2.65196075 -6.11648366 3.07522903 -9 4.9375 C-11.69386262 9.06247714 -11.81117899 12.20052431 -11 17 C-9.61785878 20.35161246 -9.61785878 20.35161246 -8 23 C-8 23.66 -8 24.32 -8 25 C-7.34 25 -6.68 25 -6 25 C-6 25.66 -6 26.32 -6 27 C-10.21779303 25.49364535 -11.7747674 22.75987578 -14 19 C-15.24133624 15.27599129 -15.54111486 11.86824 -15 8 C-11.33776461 1.18066514 -7.67080349 -0.9333297 0 0 Z " fill="#446AB4" transform="translate(162,83)"/>
<path d="M0 0 C3.35694833 2.53636096 4.84664231 3.90458789 5.4375 8.125 C5 11 5 11 3 14 C0.6875 14.5 0.6875 14.5 -2 14 C-4.8125 12 -4.8125 12 -7 9 C-7.41518709 6.19229732 -7.24244863 3.86089386 -7 1 C-4.35955695 -0.32022153 -2.93650531 -0.40974493 0 0 Z " fill="#905FA6" transform="translate(162,55)"/>
<path d="M0 0 C0.33 0 0.66 0 1 0 C1.33 5.61 1.66 11.22 2 17 C3.32 17.66 4.64 18.32 6 19 C6.680625 19.515625 7.36125 20.03125 8.0625 20.5625 C11.88467524 23.39830744 15.39670247 23.1587344 20 23 C21.67557379 22.71479595 23.34817245 22.40044304 25 22 C22.30098684 25.27153111 20.89807465 26.8669519 16.625 27.5 C9.67994533 26.54206142 5.47708222 24.19566524 1.22265625 18.75 C-2.20154924 13.84890077 -2.74765287 8.87127403 -2 3 C-1.34 2.01 -0.68 1.02 0 0 Z " fill="#4555AA" transform="translate(74,137)"/>
<path d="M0 0 C2.60847629 1.49745861 4.87028902 2.87028902 7 5 C7.15252309 6.91240484 7.22192773 8.83172799 7.25 10.75 C7.27578125 11.79671875 7.3015625 12.8434375 7.328125 13.921875 C6.85744238 18.33732621 5.09472444 20.90527556 2 24 C-1.87058172 24.87475147 -5.48412827 24.92858674 -8.92578125 22.8203125 C-12.41902005 19.33541079 -13.41933668 16.27774819 -13.625 11.375 C-13.42128656 7.66741548 -13.07617423 6.12695706 -11.125 2.875 C-7.43137598 -0.38408002 -4.89394814 -0.40782901 0 0 Z M-9.5 3.875 C-11.63522226 8.3233797 -11.75469358 12.15407279 -11 17 C-9.80400957 20.26723977 -9.80400957 20.26723977 -7 22 C-3.91297452 22.56836931 -1.07139051 22.67876033 2 22 C4.27507292 20.3874201 4.90063498 19.41875258 5.546875 16.6953125 C6.2615031 10.23881574 6.2615031 10.23881574 5 4 C2.11756626 1.57875566 -1.45366315 1.50768582 -5.09375 1.63671875 C-7.25288453 1.90344668 -7.25288453 1.90344668 -9.5 3.875 Z " fill="#3D5AAF" transform="translate(64,102)"/>
<path d="M0 0 C2.475 0.495 2.475 0.495 5 1 C5.66 3.64 6.32 6.28 7 9 C6.01 8.67 5.02 8.34 4 8 C4.28875 8.84304687 4.5775 9.68609375 4.875 10.5546875 C5.24625 11.65039062 5.6175 12.74609375 6 13.875 C6.37125 14.96554688 6.7425 16.05609375 7.125 17.1796875 C8 20 8 20 8 22 C8.66 22 9.32 22 10 22 C11.5078125 23.8984375 11.5078125 23.8984375 13.125 26.375 C13.66382813 27.18710938 14.20265625 27.99921875 14.7578125 28.8359375 C16 31 16 31 16 33 C16.66 33 17.32 33 18 33 C18.33 31.68 18.66 30.36 19 29 C19 30.98 19 32.96 19 35 C17.25 34.875 17.25 34.875 15 34 C13.60699818 32.04109119 12.27754554 30.0360882 11 28 C10.36449219 27.40960938 9.72898437 26.81921875 9.07421875 26.2109375 C6.53670107 23.50616348 5.31060812 20.82268518 3.8125 17.4375 C3.30332031 16.30183594 2.79414063 15.16617188 2.26953125 13.99609375 C0.1149866 8.91136837 -0.08925331 5.44445169 0 0 Z " fill="#7C1D90" transform="translate(18,140)"/>
<path d="M0 0 C7.11914608 0.13977381 11.34160409 2.42217399 16.875 6.6875 C19.41734116 10.10377094 19.28295011 12.21390892 18.875 16.375 C14.71148793 18.39367252 11.48256604 18.84356604 6.875 18.375 C4.00071809 17.34449195 1.46845155 15.97822459 -1.125 14.375 C-1.73214844 14.00117187 -2.33929688 13.62734375 -2.96484375 13.2421875 C-4.625 12.0625 -4.625 12.0625 -7.125 9.375 C-7.625 5.6875 -7.625 5.6875 -7.125 2.375 C-4.58093438 -0.16906562 -3.53248394 0.04919894 0 0 Z M-5.125 2.375 C-5.62669415 5.20573436 -5.62669415 5.20573436 -5.125 8.375 C-1.72800285 12.67120227 2.35052784 15.94616689 7.9296875 16.625 C11.76469998 16.73738132 13.63523022 16.53484652 16.875 14.375 C17.62691978 12.00608504 17.62691978 12.00608504 16.875 9.375 C14.87851637 7.42494622 13.1267261 5.94634843 10.875 4.375 C10.1325 3.776875 9.39 3.17875 8.625 2.5625 C5.26163762 1.11013897 -2.21243703 -0.53756297 -5.125 2.375 Z " fill="#522795" transform="translate(138.125,29.625)"/>
<path d="M0 0 C11.61924502 3.78153611 20.56165822 16.7899272 28 26 C27.67 26.66 27.34 27.32 27 28 C25.35 26.68 23.7 25.36 22 24 C21.34 24.99 20.68 25.98 20 27 C18.68527053 25.37680325 17.37328338 23.751385 16.0625 22.125 C15.33160156 21.22007813 14.60070312 20.31515625 13.84765625 19.3828125 C12 17 12 17 11 15 C13.475 15.99 13.475 15.99 16 17 C13.95227235 13.25128452 11.77797122 10.61587036 8.5625 7.8125 C7.80066406 7.13832031 7.03882813 6.46414062 6.25390625 5.76953125 C4.22245402 4.17464761 2.3509592 3.04427572 0 2 C0 1.34 0 0.68 0 0 Z " fill="#7B1B99" transform="translate(151,18)"/>
<path d="M0 0 C-1 3 -1 3 -4.3515625 4.7890625 C-5.77115316 5.41229742 -7.19592879 6.02382209 -8.625 6.625 C-9.67494141 7.09292969 -9.67494141 7.09292969 -10.74609375 7.5703125 C-15.19637068 9.48583058 -19.17697472 10.53162222 -24 11 C-23.79296875 9.1640625 -23.79296875 9.1640625 -23 7 C-16.07024909 2.27576303 -8.35170825 -0.33406833 0 0 Z " fill="#741C97" transform="translate(91,16)"/>
<path d="M0 0 C4.60250905 3.61625711 6.51740931 8.48445534 8 14 C8.4636882 18.86555013 8.55271064 23.34186807 7 28 C1.40829694 32.87481805 1.40829694 32.87481805 -2.8125 33.25 C-6.35541555 32.97212427 -8.12955745 32.02619474 -11 30 C-9.0625 29.4375 -9.0625 29.4375 -7 29 C-6.67 29.33 -6.34 29.66 -6 30 C-2.62642666 30.50070321 -2.62642666 30.50070321 1 30 C3.6988559 27.38278209 4.87641799 25.66563827 5.56640625 21.94921875 C5.55855544 15.39379491 5.27433824 10.8977163 1.09375 5.68359375 C0 4 0 4 0 0 Z " fill="#671997" transform="translate(197,65)"/>
<path d="M0 0 C0.6796875 1.7265625 0.6796875 1.7265625 1 4 C-0.1171875 6.0859375 -0.1171875 6.0859375 -1.875 8.375 C-4.11944406 11.38398576 -6.27553781 14.38434591 -8.2265625 17.58984375 C-15.38163964 29.33877937 -15.38163964 29.33877937 -22 33 C-20.30190605 29.19552722 -17.88813715 25.96643981 -15.4375 22.625 C-11.35004154 16.98943262 -7.49767535 11.24205679 -3.78100586 5.35595703 C-1.08064788 1.08064788 -1.08064788 1.08064788 0 0 Z " fill="#61369E" transform="translate(193,113)"/>
<path d="M0 0 C2.84660817 2.29546846 3.90619843 3.53271854 4.63671875 7.171875 C4.79074426 18.02474918 4.79074426 18.02474918 0.8125 22.75 C-3.76177525 27.03152164 -7.49746875 28.47344178 -13.8671875 28.328125 C-17.60529137 27.7530321 -20.890874 26.12444021 -24 24 C-24.33 23.34 -24.66 22.68 -25 22 C-22.41564713 22.44303192 -20.1533332 22.93185191 -17.75 24 C-13.90513861 25.39813142 -10.05860543 25.66399345 -6 26 C-6 25.34 -6 24.68 -6 24 C-5.236875 23.5875 -4.47375 23.175 -3.6875 22.75 C-0.22295233 20.49401547 0.58784761 18.88341908 2 15 C2.51218036 11.673314 2.80746779 8.35935503 3 5 C2.01 4.67 1.02 4.34 0 4 C0 2.68 0 1.36 0 0 Z " fill="#3368B9" transform="translate(141,57)"/>
<path d="M0 0 C2.70208757 1.63547406 4.62063395 3.01250444 5.77734375 6.0234375 C6.87774252 10.73025266 7.2050593 15.18110638 7 20 C6.01 19.67 5.02 19.34 4 19 C4 18.34 4 17.68 4 17 C3.34 17 2.68 17 2 17 C0.30167391 11.16200408 -0.25287193 6.06892629 0 0 Z " fill="#850B8F" transform="translate(209,71)"/>
<path d="M0 0 C1.875 0.25 1.875 0.25 4 1 C5.25 3.0625 5.25 3.0625 6 5 C6.66 5 7.32 5 8 5 C8.56379392 6.39531121 9.12591217 7.79129942 9.6875 9.1875 C10.05359375 10.095 10.4196875 11.0025 10.796875 11.9375 C11.62739403 14.05154844 12.42772063 16.17762044 13.203125 18.3125 C15.50046635 24.59383837 17.76816803 29.80089215 22 35 C21.67 35.66 21.34 36.32 21 37 C13.91648506 30.70354227 11.29362457 22.42928961 8.19360352 13.72338867 C6.27137701 8.4049067 4.2356435 3.83224888 0 0 Z " fill="#6554B0" transform="translate(53,141)"/>
<path d="M0 0 C0.66 0.33 1.32 0.66 2 1 C1.50628906 1.47050781 1.01257813 1.94101563 0.50390625 2.42578125 C-0.13675781 3.04839844 -0.77742187 3.67101562 -1.4375 4.3125 C-2.07558594 4.92738281 -2.71367187 5.54226562 -3.37109375 6.17578125 C-5.2221418 8.00644056 -5.2221418 8.00644056 -6 11 C-7.33333333 12.33333333 -8.66666667 13.66666667 -10 15 C-12.48552021 18.59019586 -13.10739069 20.53695344 -14 25 C-10.7 24.34 -7.4 23.68 -4 23 C-4 23.66 -4 24.32 -4 25 C-7.67346771 27.44897847 -9.66356399 27.31537716 -14 27 C-16 25 -16 25 -16.0625 21.4375 C-14.68439565 12.57596857 -6.18055851 5.89159733 0 0 Z " fill="#661D94" transform="translate(173,169)"/>
<path d="M0 0 C3.5 1.75 3.5 1.75 6 4 C6.7425 4.61875 7.485 5.2375 8.25 5.875 C12.0005631 10.42925519 12.4175513 15.25866956 12 21 C11 23.9375 11 23.9375 10 26 C9 23 9 23 9.625 19.1875 C10.21745474 14.93118045 9.4241163 12.63617445 7 9 C3.64623902 5.2270189 1.55284034 3.19992123 -3.59375 2.796875 C-4.5528125 2.78140625 -5.511875 2.7659375 -6.5 2.75 C-7.93859375 2.71132812 -7.93859375 2.71132812 -9.40625 2.671875 C-12.4155155 3.05256521 -13.07444945 3.76917925 -15 6 C-15.66 6 -16.32 6 -17 6 C-17 4 -17 4 -15.25 1.875 C-10.30202905 -0.97959863 -5.58165558 -0.75734811 0 0 Z " fill="#307CC3" transform="translate(92,131)"/>
<path d="M0 0 C1.93077009 1.2183469 3.76866843 2.47676057 5.56640625 3.8828125 C4.57640625 4.3778125 4.57640625 4.3778125 3.56640625 4.8828125 C1.90234375 4.0703125 1.90234375 4.0703125 -0.05859375 2.8828125 C-3.74117747 0.98834254 -6.31833514 0.31072003 -10.41015625 1.0546875 C-13.79991577 2.44200221 -16.19284589 4.83569758 -18.76953125 7.38671875 C-20.43359375 8.8828125 -20.43359375 8.8828125 -22.43359375 8.8828125 C-22.43359375 13.1728125 -22.43359375 17.4628125 -22.43359375 21.8828125 C-23.09359375 21.5528125 -23.75359375 21.2228125 -24.43359375 20.8828125 C-24.93813087 13.91739728 -24.64155592 9.56924786 -20.43359375 3.8828125 C-14.76618756 -1.36990543 -7.28575789 -3.34466574 0 0 Z " fill="#3C4AA3" transform="translate(135.43359375,52.1171875)"/>
<path d="M0 0 C-2.11298425 1.09562146 -4.0998446 2.03152987 -6.375 2.75 C-9.95239262 4.4535203 -12.52343687 6.91997054 -15 10 C-15.33 10.99 -15.66 11.98 -16 13 C-16.66 13 -17.32 13 -18 13 C-17.67 17.62 -17.34 22.24 -17 27 C-19 26 -19 26 -20 23 C-20.80425357 16.53150346 -20.18830134 12.02488497 -16.36328125 6.69140625 C-11.18410179 0.26566211 -8.16414051 -0.1570027 0 0 Z " fill="#2569B2" transform="translate(144,120)"/>
<path d="M0 0 C2.69248651 1.09693895 4.10097379 2.11321304 6.0625 4.3125 C14.38475168 11.92647494 22.91500912 12.57164802 33.66796875 12.17578125 C35.31732422 12.08876953 35.31732422 12.08876953 37 12 C33.92123166 15.07876834 31.11133583 15.17793377 26.9375 15.25 C16.35452463 15.04139996 10.63734803 12.34846854 3.40234375 4.84838867 C0 1.18778731 0 1.18778731 0 0 Z " fill="#8F1A92" transform="translate(86,199)"/>
<path d="M0 0 C0.32613618 4.67461851 -0.29417212 7.16674383 -3 11 C-4 9 -4 9 -4 5 C-4.62648437 5.98742187 -5.25296875 6.97484375 -5.8984375 7.9921875 C-6.72382418 9.28654389 -7.54935239 10.58081004 -8.375 11.875 C-8.7875 12.52597656 -9.2 13.17695313 -9.625 13.84765625 C-11.28002854 16.43697509 -12.81997379 18.81997379 -15 21 C-14.48286465 16.32509647 -13.26531616 13.29416375 -10.6875 9.375 C-10.09324219 8.45460937 -9.49898437 7.53421875 -8.88671875 6.5859375 C-4.081571 0 -4.081571 0 0 0 Z " fill="#780A8A" transform="translate(210,151)"/>
<path d="M0 0 C3.31907356 1.45770122 5.65073389 3.29506264 8.25 5.8125 C8.95640625 6.47894531 9.6628125 7.14539063 10.390625 7.83203125 C12.33317112 10.44881061 12.41139474 11.81169079 12 15 C11 16 11 16 8.5 16.4375 C3.39487256 15.79935907 0.05540369 13.02803475 -4 10 C-2.1171875 9.41796875 -2.1171875 9.41796875 0 9 C1.36538653 9.95577057 2.69481525 10.96352976 4 12 C5.98014432 12.72351427 7.97821315 13.40265389 10 14 C8.00392837 9.06852893 5.54029719 6.46581896 1.42578125 3.296875 C0.95527344 2.86890625 0.48476562 2.4409375 0 2 C0 1.34 0 0.68 0 0 Z " fill="#761B98" transform="translate(65,189)"/>
<path d="M0 0 C0 0.33 0 0.66 0 1 C-0.99 1 -1.98 1 -3 1 C-8.37525623 1.73498401 -11.84430399 5.85141427 -15 10 C-15.75473687 12.1498244 -15.75473687 12.1498244 -16 14 C-16.66 14 -17.32 14 -18 14 C-18 16.31 -18 18.62 -18 21 C-18.33 21 -18.66 21 -19 21 C-19.58342238 15.12255975 -19.87573181 10.38592678 -16.3125 5.4375 C-11.42210743 -0.13686356 -7.07598307 -0.23986383 0 0 Z " fill="#405DAB" transform="translate(87,69)"/>
<path d="M0 0 C3.35694833 2.53636096 4.84664231 3.90458789 5.4375 8.125 C5 11 5 11 3 14 C0.6875 14.5 0.6875 14.5 -2 14 C-4.8125 12 -4.8125 12 -7 9 C-7.41518709 6.19229732 -7.24244863 3.86089386 -7 1 C-4.35955695 -0.32022153 -2.93650531 -0.40974493 0 0 Z M-4 1 C-5.33648017 2.11101184 -5.33648017 2.11101184 -5.125 4.9375 C-5.21325664 7.91545728 -5.21325664 7.91545728 -4 10 C-3.34 10 -2.68 10 -2 10 C-2 10.66 -2 11.32 -2 12 C-0.35 12 1.3 12 3 12 C3.31012836 7.10706908 3.31012836 7.10706908 1.75 2.5625 C-0.10628502 0.55598949 -0.10628502 0.55598949 -4 1 Z " fill="#543CA3" transform="translate(162,55)"/>
<path d="M0 0 C1.58944159 4.77921137 0.19239663 8.60683882 -2 13 C-4.5 14.875 -4.5 14.875 -7 16 C-7.474375 16.556875 -7.94875 17.11375 -8.4375 17.6875 C-10 19 -10 19 -12.875 19.4375 C-16.64875512 18.90917428 -18.26191346 17.57702263 -21 15 C-20.67 14.34 -20.34 13.68 -20 13 C-19.46375 13.495 -18.9275 13.99 -18.375 14.5 C-15.23686002 16.48198314 -13.65126535 16.67064058 -10 16 C-5.93544711 12.12449608 -3.9784339 8.20640501 -2 3 C-1.34 3 -0.68 3 0 3 C0 2.01 0 1.02 0 0 Z " fill="#552A93" transform="translate(40,116)"/>
<path d="M0 0 C0.33 1.32 0.66 2.64 1 4 C0.4328125 3.74476562 -0.134375 3.48953125 -0.71875 3.2265625 C-1.4715625 3.15179688 -2.224375 3.07703125 -3 3 C-5.33626429 4.84157737 -5.33626429 4.84157737 -7.5 7.375 C-12.15898442 12.52860263 -12.15898442 12.52860263 -16 13 C-13.06564532 6.06425258 -7.97557003 -0.66463084 0 0 Z " fill="#872395" transform="translate(210,100)"/>
<path d="M0 0 C-0.55300781 0.27585938 -1.10601562 0.55171875 -1.67578125 0.8359375 C-2.44277344 1.22007813 -3.20976563 1.60421875 -4 2 C-5.22783203 2.60714844 -5.22783203 2.60714844 -6.48046875 3.2265625 C-15.60321736 7.93932441 -22.71700419 13.89290864 -29 22 C-29 17.44502515 -26.27511941 15.52960504 -23.28515625 12.28125 C-20.10232922 9.1038637 -16.74445293 6.47872236 -13 4 C-12.39027344 3.58621094 -11.78054687 3.17242187 -11.15234375 2.74609375 C-7.30657665 0.32030219 -4.52193317 -0.44116421 0 0 Z " fill="#551689" transform="translate(64,32)"/>
<path d="M0 0 C2.85026332 0.30538536 4.05165508 1.04448076 6.25 2.9375 C8.75603028 7.323053 8.76950686 11.05976597 8 16 C6.69691348 19.63002674 5.07087728 22.31582841 1.75 24.4375 C1.1725 24.623125 0.595 24.80875 0 25 C1.14492801 22.71014398 2.29806347 20.50704887 3.625 18.3125 C5.38116063 14.08174939 5.90178025 10.51695287 5 6 C3.56212073 3.55860081 2.05480725 2.00343707 0 0 Z " fill="#2E74BC" transform="translate(87,70)"/>
<path d="M0 0 C0.33 0 0.66 0 1 0 C0.72405803 6.48463627 -1.78610069 11.07074377 -6 16 C-6.66 16 -7.32 16 -8 16 C-7.50141464 11.27728869 -6.29845331 8.44420062 -3.5 4.625 C-2.8709375 3.75101563 -2.241875 2.87703125 -1.59375 1.9765625 C-1.0678125 1.32429687 -0.541875 0.67203125 0 0 Z " fill="#DA1C85" transform="translate(206,155)"/>
<path d="M0 0 C-4.02167317 2.96837781 -7.00088076 4.52389341 -12 5 C-12 5.66 -12 6.32 -12 7 C-14.97 7 -17.94 7 -21 7 C-20.67 5.35 -20.34 3.7 -20 2 C-18.35 1.67 -16.7 1.34 -15 1 C-15.99 1.99 -16.98 2.98 -18 4 C-13.83870117 4.30575852 -11.48767013 3.46479348 -7.875 1.4375 C-3.33144476 -1.11048159 -3.33144476 -1.11048159 0 0 Z " fill="#770B8D" transform="translate(154,206)"/>
<path d="M0 0 C0.66 0.33 1.32 0.66 2 1 C1.154375 1.969375 0.30875 2.93875 -0.5625 3.9375 C-3.02562277 6.78984264 -5.30879421 9.73023193 -7.5625 12.75 C-10.05415813 16.0002296 -12.19536551 18.27062069 -16 20 C-12.50241078 12.25533815 -6.09893593 5.79398914 0 0 Z " fill="#5D369C" transform="translate(88,27)"/>
<path d="M0 0 C2.42999536 2.27364177 3.42805835 3.68273845 4 7 C4.66 7 5.32 7 6 7 C7.5078125 8.8984375 7.5078125 8.8984375 9.125 11.375 C9.66382813 12.18710938 10.20265625 12.99921875 10.7578125 13.8359375 C12 16 12 16 12 18 C12.66 18 13.32 18 14 18 C14.33 16.68 14.66 15.36 15 14 C15 15.98 15 17.96 15 20 C13.25 19.875 13.25 19.875 11 19 C9.60699818 17.04109119 8.27754554 15.0360882 7 13 C6.319375 12.401875 5.63875 11.80375 4.9375 11.1875 C2.0521277 7.9298216 1.16653162 4.13588485 0 0 Z " fill="#5F118A" transform="translate(22,155)"/>
<path d="M0 0 C5.96985565 -0.53302283 9.26955506 0.23886423 14.3359375 3.41796875 C17.19402375 6.13516342 17.90271821 8.96566567 18.265625 12.82421875 C18.26046875 13.76910156 18.2553125 14.71398437 18.25 15.6875 C18.25515625 16.64011719 18.2603125 17.59273437 18.265625 18.57421875 C18 21 18 21 16 23 C16.05800781 22.21496094 16.11601562 21.42992187 16.17578125 20.62109375 C16.56765984 12.38539536 16.56765984 12.38539536 12.84375 5.3359375 C9.06979802 2.60142145 4.51312983 1.82991004 0 1 C0 0.67 0 0.34 0 0 Z " fill="#385CB2" transform="translate(139,119)"/>
<path d="M0 0 C2.63361256 0.37623037 4.07220172 1.05214568 6.25 2.625 C8.68498684 5.929625 8.49393541 7.97795456 8 12 C5.92931131 16.60153043 2.33341774 20.25664739 -1 24 C-1.33 23.01 -1.66 22.02 -2 21 C-1.01 20.67 -0.02 20.34 1 20 C1 19.01 1 18.02 1 17 C1.66 16.443125 2.32 15.88625 3 15.3125 C5.38487553 12.55498767 5.62801594 10.5864577 5.47265625 6.97265625 C4.68639284 3.69114368 2.55270688 2.04216551 0 0 Z " fill="#5737A2" transform="translate(112,24)"/>
<path d="M0 0 C-1.32120828 2.93230193 -2.74638197 4.98664899 -5.0390625 7.234375 C-5.90917969 8.09482422 -5.90917969 8.09482422 -6.796875 8.97265625 C-7.40015625 9.55917969 -8.0034375 10.14570313 -8.625 10.75 C-9.23601562 11.35199219 -9.84703125 11.95398438 -10.4765625 12.57421875 C-11.97988624 14.05405305 -13.48934856 15.52764676 -15 17 C-15.66 16.67 -16.32 16.34 -17 16 C-2.77075099 0 -2.77075099 0 0 0 Z " fill="#210950" transform="translate(164,167)"/>
<path d="M0 0 C4.69659241 0.44494033 6.39439079 2.0633334 9.375 5.625 C13.08431948 9.94943276 16.91406645 14.0323089 21 18 C20.67 18.66 20.34 19.32 20 20 C13.33333333 13.33333333 6.66666667 6.66666667 0 0 Z " fill="#50208C" transform="translate(63,177)"/>
<path d="M0 0 C0.66 0.33 1.32 0.66 2 1 C1.3503125 1.49886719 0.700625 1.99773437 0.03125 2.51171875 C-5.29940229 7.064346 -5.29940229 7.064346 -7.59765625 13.4921875 C-7.56602789 16.70422315 -7.39889472 19.81376683 -7 23 C-8.9083857 21.39614394 -9.89606185 20.44693403 -10.46875 17.984375 C-10.55372906 11.90837222 -9.21028699 8.39235346 -5 4 C-2.1875 1.5625 -2.1875 1.5625 0 0 Z " fill="#49389D" transform="translate(113,166)"/>
<path d="M0 0 C0.99773437 0.02320312 1.99546875 0.04640625 3.0234375 0.0703125 C4.52777344 0.09738281 4.52777344 0.09738281 6.0625 0.125 C6.83335937 0.14820312 7.60421875 0.17140625 8.3984375 0.1953125 C8.3984375 0.5253125 8.3984375 0.8553125 8.3984375 1.1953125 C5.0984375 1.5253125 1.7984375 1.8553125 -1.6015625 2.1953125 C-2.01334938 6.66130921 -2.01334938 6.66130921 0.1484375 10.4453125 C2.18174227 12.02677177 4.03777023 13.18359796 6.3984375 14.1953125 C4.6328125 14.8515625 4.6328125 14.8515625 2.3984375 15.1953125 C-0.48255609 13.74310435 -2.62336037 11.73174701 -4.6015625 9.1953125 C-5.1640625 5.4453125 -5.1640625 5.4453125 -4.6015625 2.1953125 C-2.6015625 0.1953125 -2.6015625 0.1953125 0 0 Z " fill="#542E9D" transform="translate(135.6015625,29.8046875)"/>
<path d="M0 0 C0.66 0.33 1.32 0.66 2 1 C1.67 1.66 1.34 2.32 1 3 C1.99 3.33 2.98 3.66 4 4 C2.75336669 4.50833591 1.50250613 5.00631145 0.25 5.5 C-0.44609375 5.7784375 -1.1421875 6.056875 -1.859375 6.34375 C-4 7 -4 7 -8 7 C-7.9375 5.1875 -7.9375 5.1875 -7 3 C-3.5625 1.1875 -3.5625 1.1875 0 0 Z " fill="#83239A" transform="translate(75,20)"/>
<path d="M0 0 C-4.40086567 3.12319499 -8.79459302 4.03603575 -14 5 C-14 5.66 -14 6.32 -14 7 C-18.455 8.485 -18.455 8.485 -23 10 C-18.20765705 5.20765705 -7.18926036 -3.59463018 0 0 Z " fill="#682093" transform="translate(199,149)"/>
<path d="M0 0 C1.21816406 0.03480469 1.21816406 0.03480469 2.4609375 0.0703125 C3.68683594 0.09738281 3.68683594 0.09738281 4.9375 0.125 C5.87722656 0.15980469 5.87722656 0.15980469 6.8359375 0.1953125 C6.8359375 2.5053125 6.8359375 4.8153125 6.8359375 7.1953125 C6.5059375 7.1953125 6.1759375 7.1953125 5.8359375 7.1953125 C5.8359375 5.2153125 5.8359375 3.2353125 5.8359375 1.1953125 C-1.06174144 4.0037247 -1.06174144 4.0037247 -7.1640625 8.1953125 C-7.8240625 7.8653125 -8.4840625 7.5353125 -9.1640625 7.1953125 C-2.1640625 0.1953125 -2.1640625 0.1953125 0 0 Z " fill="#822393" transform="translate(183.1640625,162.8046875)"/>
<path d="M0 0 C4.30979878 0.25351758 6.94041009 1.85928395 9.83203125 4.921875 C12.24346641 9.21245529 11.66328644 14.26132862 11 19 C9.96875 21.87109375 9.96875 21.87109375 9 24 C7.96055399 20.88166198 8.06960368 19.86457544 8.625 16.75 C9.19930864 12.04066919 8.51226738 9.13308504 6 5 C2.95202627 2.63297941 2.95202627 2.63297941 0 1 C0 0.67 0 0.34 0 0 Z " fill="#4B45A7" transform="translate(162,84)"/>
<path d="M0 0 C1.77314286 1.77314286 3.52494809 3.55411187 5.25 5.375 C8.32427678 8.30953693 11.49923753 10.59751595 15 13 C11.51612903 14.237691 11.51612903 14.237691 9.21875 13.1796875 C5.61835556 10.44666081 2.47175943 7.85594471 0 4 C0 2.68 0 1.36 0 0 Z " fill="#642896" transform="translate(39,157)"/>
<path d="M0 0 C0.66 0.33 1.32 0.66 2 1 C1.0409375 2.2065625 1.0409375 2.2065625 0.0625 3.4375 C-2.59852326 7.35851307 -2.79406347 11.36642801 -3 16 C-2.34 16 -1.68 16 -1 16 C-1.33 16.99 -1.66 17.98 -2 19 C-4.66616879 15.44510828 -5.57343227 12.48117526 -5.4375 8.00390625 C-4.66093194 4.44694717 -2.53370459 2.53370459 0 0 Z " fill="#1188BF" transform="translate(101,99)"/>
<path d="M0 0 C0.83273438 -0.00386719 1.66546875 -0.00773438 2.5234375 -0.01171875 C6.60405986 -0.00522094 10.39486352 0.10153633 14.375 1.125 C14.375 1.455 14.375 1.785 14.375 2.125 C13.70968262 2.11976318 13.04436523 2.11452637 12.35888672 2.10913086 C9.32260089 2.08824747 6.28633022 2.0753038 3.25 2.0625 C2.20328125 2.05412109 1.1565625 2.04574219 0.078125 2.03710938 C-4.9340905 2.02124793 -9.70165912 2.04322787 -14.625 3.125 C-14.625 3.785 -14.625 4.445 -14.625 5.125 C-15.615 5.125 -16.605 5.125 -17.625 5.125 C-17.295 3.805 -16.965 2.485 -16.625 1.125 C-11.04437787 0.17734719 -5.65469942 -0.0265064 0 0 Z " fill="#530E84" transform="translate(121.625,10.875)"/>
<path d="M0 0 C0.66 0 1.32 0 2 0 C1.49202991 4.3177458 0.80317221 8.03302114 -1 12 C-1.99 12 -2.98 12 -4 12 C-3.53680089 7.27536912 -2.90108294 3.82942948 0 0 Z " fill="#481186" transform="translate(21,78)"/>
<path d="M0 0 C3.58635867 2.96802097 4.88536672 5.79574153 6.2890625 10.09765625 C7.02261348 12.281273 7.02261348 12.281273 9 15 C8.625 17.1875 8.625 17.1875 8 19 C6.65632608 16.58858519 5.32497485 14.17166012 4 11.75 C3.42765625 10.72712891 3.42765625 10.72712891 2.84375 9.68359375 C2.4828125 9.01972656 2.121875 8.35585937 1.75 7.671875 C1.24726563 6.76066895 1.24726563 6.76066895 0.734375 5.83105469 C0 4 0 4 0 0 Z " fill="#661A8F" transform="translate(27,150)"/>
<path d="M0 0 C0 0.66 0 1.32 0 2 C-3.11821357 3.8159434 -5.4650331 4.29622187 -9.0625 4.3125 C-10.34833984 4.33763672 -10.34833984 4.33763672 -11.66015625 4.36328125 C-14.42104781 3.93462864 -15.27778897 3.14005895 -17 1 C-15.73542969 1.01740234 -15.73542969 1.01740234 -14.4453125 1.03515625 C-13.34960938 1.04417969 -12.25390625 1.05320312 -11.125 1.0625 C-9.48917969 1.07990234 -9.48917969 1.07990234 -7.8203125 1.09765625 C-4.79973768 0.99306571 -3.04879226 0 0 0 Z " fill="#12B0D6" transform="translate(117,118)"/>
<path d="M0 0 C0 0.33 0 0.66 0 1 C-1.75376953 1.19916016 -1.75376953 1.19916016 -3.54296875 1.40234375 C-5.09115839 1.58062013 -6.63933478 1.75901161 -8.1875 1.9375 C-8.95642578 2.02451172 -9.72535156 2.11152344 -10.51757812 2.20117188 C-14.38772828 2.64964421 -18.19186624 3.1529001 -22 4 C-16.6322981 -2.30272094 -7.42246526 -1.19717182 0 0 Z " fill="#612598" transform="translate(112,23)"/>
<path d="M0 0 C4.35888497 3.90796583 6.84786755 7.28427401 7.18359375 13.27734375 C7.18711879 16.52390642 7.12994306 19.75623613 7 23 C6.67 23 6.34 23 6 23 C5.98582031 22.29875 5.97164062 21.5975 5.95703125 20.875 C5.64750529 14.71794309 4.82351986 10.69203879 1.05859375 5.75390625 C0 4 0 4 0 0 Z " fill="#891A98" transform="translate(197,65)"/>
<path d="M0 0 C0.886875 0.804375 1.77375 1.60875 2.6875 2.4375 C5.38287032 4.7039159 7.42063478 5.68417366 11 6 C11 6.66 11 7.32 11 8 C15.29 8 19.58 8 24 8 C24 8.33 24 8.66 24 9 C21.62374823 9.10883596 19.25256024 9.18766696 16.875 9.25 C16.20984375 9.28351563 15.5446875 9.31703125 14.859375 9.3515625 C8.78334088 9.47070042 5.57069288 7.22793383 1.125 3.375 C0 2 0 2 0 0 Z " fill="#4D1C8C" transform="translate(106,189)"/>
<path d="M0 0 C0.66 0.33 1.32 0.66 2 1 C-2.29 5.29 -6.58 9.58 -11 14 C-11.66 13.67 -12.32 13.34 -13 13 C-8.96476648 8.18876004 -4.95532767 3.86757281 0 0 Z " fill="#A6319A" transform="translate(50,38)"/>
<path d="M0 0 C4.12751449 0.60698743 7.3321148 2.03810791 11 4 C11 4.66 11 5.32 11 6 C12.32 6.33 13.64 6.66 15 7 C9.299021 7.87707369 6.23874144 5.53793338 1.7578125 2.41015625 C1.17773438 1.94480469 0.59765625 1.47945312 0 1 C0 0.67 0 0.34 0 0 Z " fill="#670F86" transform="translate(61,198)"/>
<path d="M0 0 C1.46573934 0.90477737 2.92235756 1.82434141 4.375 2.75 C5.18710938 3.26046875 5.99921875 3.7709375 6.8359375 4.296875 C9.08555679 6.0673335 9.95906848 7.36907419 11 10 C9.02 8.68 7.04 7.36 5 6 C4.01 7.485 4.01 7.485 3 9 C2.01 6.03 1.02 3.06 0 0 Z " fill="#962996" transform="translate(168,36)"/>
<path d="M0 0 C0.99 0.33 1.98 0.66 3 1 C0.36 3.64 -2.28 6.28 -5 9 C-5.33 8.01 -5.66 7.02 -6 6 C-4.02 4.02 -2.04 2.04 0 0 Z M-8 9 C-7.34 9.33 -6.68 9.66 -6 10 C-6.99 10.66 -7.98 11.32 -9 12 C-8.67 11.01 -8.34 10.02 -8 9 Z " fill="#B33896" transform="translate(173,171)"/>
<path d="M0 0 C0.9590625 0.4640625 0.9590625 0.4640625 1.9375 0.9375 C5.31089805 2.10786259 8.37387846 2.45788403 11.9140625 2.75390625 C14 3 14 3 17 4 C13.07468041 5.9626598 8.27957848 5.48042535 4 5 C1.3125 3.0625 1.3125 3.0625 0 1 C0 0.67 0 0.34 0 0 Z " fill="#2A6AB8" transform="translate(70,92)"/>
<path d="M0 0 C1.08784335 3.31395986 1.07262544 3.83580335 -0.4375 7.25 C-0.953125 8.1575 -1.46875 9.065 -2 10 C-2.66 10 -3.32 10 -4 10 C-4 11.65 -4 13.3 -4 15 C-4.33 15 -4.66 15 -5 15 C-5.67081836 8.56014376 -3.75430238 5.16216577 0 0 Z " fill="#5F1A8B" transform="translate(33,54)"/>
<path d="M0 0 C3.12270126 2.51830747 3.94523098 3.7261549 4.75 7.75 C4.8325 8.8225 4.915 9.895 5 11 C3.0625 10.625 3.0625 10.625 1 10 C0.67 9.34 0.34 8.68 0 8 C0.99 8 1.98 8 3 8 C2.505 7.4225 2.01 6.845 1.5 6.25 C0 4 0 4 0 0 Z " fill="#760C8C" transform="translate(196,48)"/>
<path d="M0 0 C1.28389899 2.46903651 2.35440779 4.90212892 3.375 7.5 C4.91416416 10.81512281 6.26558689 12.64274731 9 15 C8.01 15 7.02 15 6 15 C2.4552794 11.13303207 0.0785366 8.0419517 -0.125 2.75 C-0.08375 1.8425 -0.0425 0.935 0 0 Z " fill="#6639A8" transform="translate(179,78)"/>
<path d="M0 0 C2.63032833 0.45091343 4.96251867 0.98462304 7.4375 2 C10.27949909 3.10907282 12.98593192 3.57943236 16 4 C16 4.33 16 4.66 16 5 C6.31912716 5.68875775 6.31912716 5.68875775 2.375 3.0625 C1.59125 2.381875 0.8075 1.70125 0 1 C0 0.67 0 0.34 0 0 Z " fill="#2D80C0" transform="translate(116,79)"/>
<path d="M0 0 C5.66104589 0.49658297 9.87674471 1.54510684 15 4 C11.21180727 5.43410153 8.93478721 4.51009497 5.25 3.0625 C3.77273437 2.49208984 3.77273437 2.49208984 2.265625 1.91015625 C1.51796875 1.60980469 0.7703125 1.30945313 0 1 C0 0.67 0 0.34 0 0 Z " fill="#330961" transform="translate(105,200)"/>
<path d="M0 0 C1.98 1.65 3.96 3.3 6 5 C5.01 5.495 5.01 5.495 4 6 C3.67 6.66 3.34 7.32 3 8 C1.35 6.02 -0.3 4.04 -2 2 C-1.34 2 -0.68 2 0 2 C0 1.34 0 0.68 0 0 Z " fill="#200247" transform="translate(187,49)"/>
<path d="M0 0 C0 0.66 0 1.32 0 2 C-3.6441774 4.4294516 -5.71241272 4.16179575 -10 4 C-10.33 3.34 -10.66 2.68 -11 2 C-3.375 0 -3.375 0 0 0 Z " fill="#72118C" transform="translate(169,192)"/>
<path d="M0 0 C0.75 1.6875 0.75 1.6875 1 4 C-1.13381449 7.2769294 -2.25018012 8.75006004 -6 10 C-4.6302836 6.00499382 -2.74277578 3.19990508 0 0 Z " fill="#632B97" transform="translate(193,113)"/>
<path d="M0 0 C1.984375 1.546875 1.984375 1.546875 4 4 C4.390625 7.453125 4.390625 7.453125 4.25 11.25 C4.21390625 12.51328125 4.1778125 13.7765625 4.140625 15.078125 C4.09421875 16.04234375 4.0478125 17.0065625 4 18 C3.67 18 3.34 18 3 18 C3 13.71 3 9.42 3 5 C2.01 4.67 1.02 4.34 0 4 C0 2.68 0 1.36 0 0 Z " fill="#3F49A7" transform="translate(141,57)"/>
<path d="M0 0 C-2.50600314 2.50600314 -4.18594425 2.97054791 -7.69921875 3.09765625 C-8.68535156 3.08605469 -9.67148438 3.07445312 -10.6875 3.0625 C-11.68136719 3.05347656 -12.67523438 3.04445312 -13.69921875 3.03515625 C-14.83810547 3.01775391 -14.83810547 3.01775391 -16 3 C-16 2.67 -16 2.34 -16 2 C-10.61972975 0.80911014 -5.54708616 -0.2919519 0 0 Z " fill="#8F1396" transform="translate(123,211)"/>
<path d="M0 0 C0.66 1.32 1.32 2.64 2 4 C2.66 4 3.32 4 4 4 C3.67 5.65 3.34 7.3 3 9 C2.01 9 1.02 9 0 9 C-0.99 9.495 -0.99 9.495 -2 10 C-1.34 6.7 -0.68 3.4 0 0 Z " fill="#26024F" transform="translate(191,164)"/>
<path d="M0 0 C0.66 0.33 1.32 0.66 2 1 C-1.30015998 5.13937592 -4.17324411 8.58662205 -9 11 C-7.59155282 7.78475695 -5.89655214 5.67816132 -3.375 3.25 C-2.74335937 2.63640625 -2.11171875 2.0228125 -1.4609375 1.390625 C-0.73777344 0.70226562 -0.73777344 0.70226562 0 0 Z " fill="#4F2492" transform="translate(88,27)"/>
<path d="M0 0 C-1.125 1.5 -1.125 1.5 -3 3 C-6.1875 3.1875 -6.1875 3.1875 -9 3 C-8.67 2.01 -8.34 1.02 -8 0 C-2.25 -1.125 -2.25 -1.125 0 0 Z " fill="#9F2C99" transform="translate(85,20)"/>
<path d="M0 0 C2.38672669 2.96283313 4.7353371 5.94270509 7 9 C6.67 9.66 6.34 10.32 6 11 C1.9957657 7.50912907 0.37328935 5.35048061 0 0 Z " fill="#613BA6" transform="translate(68,167)"/>
<path d="M0 0 C4.97306516 0.49730652 8.63799813 1.55302334 13 4 C11.1875 4.625 11.1875 4.625 9 5 C8.01 4.34 7.02 3.68 6 3 C4.01200182 2.29835358 2.01301483 1.62627128 0 1 C0 0.67 0 0.34 0 0 Z " fill="#781494" transform="translate(137,13)"/>
<path d="M0 0 C0.99 0.495 0.99 0.495 2 1 C1.01 1.495 1.01 1.495 0 2 C0 1.34 0 0.68 0 0 Z M-2 2 C-1.34 2.33 -0.68 2.66 0 3 C-0.61875 3.598125 -1.2375 4.19625 -1.875 4.8125 C-4.13676954 7.00811144 -4.13676954 7.00811144 -6 10 C-6 8.02 -6 6.04 -6 4 C-4.125 2.9375 -4.125 2.9375 -2 2 Z " fill="#2E97C9" transform="translate(133,123)"/>
<path d="M0 0 C2.73704754 2.73704754 3.16182449 5.26044774 4 9 C3.625 11.4375 3.625 11.4375 3 13 C0.89172945 9.83759418 0.66182535 8.49342531 0.375 4.8125 C0.30023438 3.91144531 0.22546875 3.01039062 0.1484375 2.08203125 C0.09945312 1.39496094 0.05046875 0.70789063 0 0 Z " fill="#3980C3" transform="translate(112,66)"/>
<path d="M0 0 C0 0.66 0 1.32 0 2 C0.66 2.66 1.32 3.32 2 4 C-0.31 4.33 -2.62 4.66 -5 5 C-4.625 3.0625 -4.625 3.0625 -4 1 C-2 0 -2 0 0 0 Z " fill="#58168F" transform="translate(72,22)"/>
<path d="M0 0 C0.66 0.33 1.32 0.66 2 1 C-0.51830747 4.12270126 -1.7261549 4.94523098 -5.75 5.75 C-7.35875 5.87375 -7.35875 5.87375 -9 6 C-6.12050853 3.76039553 -3.23257974 1.70135776 0 0 Z " fill="#A72396" transform="translate(203,143)"/>
<path d="M0 0 C0.66 0 1.32 0 2 0 C0.63055898 2.94956528 -0.87830409 5.52468811 -3 8 C-3.66 8 -4.32 8 -5 8 C-3.63055898 5.05043472 -2.12169591 2.47531189 0 0 Z " fill="#2480BF" transform="translate(92,87)"/>
<path d="M0 0 C0 3 0 3 -2.5 5.6875 C-3.325 6.450625 -4.15 7.21375 -5 8 C-4.64950425 4.75791433 -4.43778819 3.38472296 -1.9375 1.1875 C-1.298125 0.795625 -0.65875 0.40375 0 0 Z " fill="#7A2D99" transform="translate(26,89)"/>
<path d="M0 0 C0.59296875 0.20496094 1.1859375 0.40992188 1.796875 0.62109375 C0.51036794 1.31820106 -0.78253165 2.00352251 -2.078125 2.68359375 C-3.15707031 3.25787109 -3.15707031 3.25787109 -4.2578125 3.84375 C-4.89976563 4.10027344 -5.54171875 4.35679687 -6.203125 4.62109375 C-6.863125 4.29109375 -7.523125 3.96109375 -8.203125 3.62109375 C-2.74543269 -0.47217548 -2.74543269 -0.47217548 0 0 Z " fill="#5159B4" transform="translate(121.203125,164.37890625)"/>
<path d="M0 0 C0.99 0.2165625 0.99 0.2165625 2 0.4375 C5.65599551 1.12299916 9.30622195 1.56175515 13 2 C13 2.33 13 2.66 13 3 C11.39667209 3.08121924 9.79215974 3.13929134 8.1875 3.1875 C7.29417969 3.22230469 6.40085937 3.25710937 5.48046875 3.29296875 C2.58352485 2.95081002 1.77444972 2.24606427 0 0 Z " fill="#117CB9" transform="translate(100,119)"/>
<path d="M0 0 C1.9375 0.75 1.9375 0.75 4 2 C4.75 4.125 4.75 4.125 5 6 C5.66 6 6.32 6 7 6 C7 6.66 7 7.32 7 8 C3.64379729 6.61122646 1.92701272 5.08322035 0 2 C0 1.34 0 0.68 0 0 Z " fill="#365FB0" transform="translate(149,102)"/>
<path d="M0 0 C3.8063457 0.67170806 7.35206816 1.72746564 11 3 C11 3.33 11 3.66 11 4 C6.35108046 4.32434322 3.77593392 3.776422 0 1 C0 0.67 0 0.34 0 0 Z " fill="#4C208E" transform="translate(186,94)"/>
<path d="M0 0 C4.7517398 0.43197635 6.92000054 1.32769295 10 5 C6.08788267 3.84414715 3.1254959 2.64465038 0 0 Z " fill="#641891" transform="translate(146,24)"/>
</svg>
